# xmcd CD database file
#
# Track frame offsets:
#	150
#	16010
#	27860
#	37439
#	53459
#	72849
#	88185
#	102533
#	114153
#	132746
#	148950
#	163559
#
# Disc length: 2372 seconds
#
# Revision: 0
# Processed by: cddbd v1.5.2PL0 Copyright (c) Steve Scherf et al.
# Submitted via: CDex 1.51
#
DISCID=a709420c
DTITLE=Laura a jeji tygri - Nejsou maly veci
DYEAR=2009
DGENRE=Jazz
TTITLE0=Nejsou maly veci
TTITLE1=Penize
TTITLE2=Zigi Zigi Bom
TTITLE3=Da Da Yes
TTITLE4=Marie nema strach
TTITLE5=Nadrazi
TTITLE6=Milacku ver mi
TTITLE7=Prodana nevesta
TTITLE8=Nedky je to tezky
TTITLE9=Medialni svet
TTITLE10=Zbytky lasky
TTITLE11=Anna se ztraci
EXTD=YEAR: 2009
EXTT0=
EXTT1=
EXTT2=
EXTT3=
EXTT4=
EXTT5=
EXTT6=
EXTT7=
EXTT8=
EXTT9=
EXTT10=
EXTT11=
PLAYORDER=
